#!OML:ASF H:\ManfredETheater\Project 1\Capture day 1\Session 1\subject.ASF
:FULLY-SPECIFIED
:DEGREES
339
root 1.4809 15.3016 9.56914 -149.976 -3.36479 173.666
lowerback 15.8891 -0.289631 -5.72856
upperback -0.245579 -1.76288 -1.53827
thorax -9.1004 -0.689954 2.00641
lowerneck -18.5222 -3.20758 -4.64269
upperneck -3.92575 -4.44056 6.59046
head 2.23419 -2.36176 2.66945
rclavicle 7.82715e-015 6.16232e-015
rhumerus -44.4562 7.23043 -94.4852
rradius 79.6188
rwrist -13.2051
rhand -28.6689 6.12919
rfingers 7.12502
rthumb -2.03194 -23.8409
lclavicle 7.82715e-015 6.16232e-015
lhumerus -35.3253 -10.9746 93.8725
lradius 88.6415
lwrist 10.1596
lhand -19.902 -5.08055
lfingers 7.12502
lthumb 6.43445 24.8017
rfemur -30.8983 -8.69024 18.6861
rtibia 80.1522
rfoot -6.0992 -6.89116
rtoes 10.8831
lfemur -50.6701 -3.57221 -25.4152
ltibia 74.2284
lfoot -34.732 -9.68699
ltoes -10.6271
340
root 1.47306 15.3081 9.24891 -149.598 -3.55033 173.202
lowerback 16.0383 -0.56141 -6.01307
upperback -0.247073 -2.20656 -1.60789
thorax -9.14775 -0.89419 2.19795
lowerneck -18.674 -3.09058 -4.60361
upperneck -4.11958 -4.32785 6.74047
head 2.19137 -2.31901 2.72211
rclavicle 2.20154e-014 1.30204e-014
rhumerus -45.5087 5.88439 -93.7041
rradius 75.9432
rwrist -13.1064
rhand -28.892 6.39251
rfingers 7.12502
rthumb -2.24742 -23.5754
lclavicle 2.20154e-014 1.30204e-014
lhumerus -32.8181 -11.0768 93.5542
lradius 90.6355
lwrist 10.7406
lhand -20.0891 -5.32514
lfingers 7.12502
lthumb 6.25378 24.5626
rfemur -34.6664 -9.58932 18.5015
rtibia 83.7941
rfoot -7.56299 -6.67421
rtoes 11.2784
lfemur -49.111 -4.10832 -25.6987
ltibia 73.031
lfoot -34.9971 -9.64239
ltoes -11.0592
341
root 1.46603 15.3143 8.92229 -149.193 -3.82097 172.826
lowerback 16.1264 -0.839284 -6.16765
upperback -0.267057 -2.62029 -1.62927
thorax -9.18209 -1.08633 2.36032
lowerneck -18.8384 -3.00959 -4.5904
upperneck -4.27536 -4.25495 6.89123
head 2.1671 -2.2938 2.77671
rclavicle -2.57426e-014 7.85199e-015
rhumerus -46.732 4.46996 -92.6753
rradius 72.2939
rwrist -13.0662
rhand -29.2977 6.76966
rfingers 7.12502
rthumb -2.63922 -23.1938
lclavicle -2.57426e-014 7.85199e-015
lhumerus -30.1305 -11.0833 93.1763
lradius 92.8676
lwrist 11.1851
lhand -20.2196 -5.5315
lfingers 7.12502
lthumb 6.1278 24.3599
rfemur -38.5491 -10.4123 18.4951
rtibia 87.1129
rfoot -9.02313 -6.33433
rtoes 11.1171
lfemur -47.5396 -4.66208 -25.8402
ltibia 71.7523
lfoot -35.2227 -9.61807
ltoes -11.5361
342
root 1.46049 15.322 8.58731 -148.787 -4.16606 172.519
lowerback 16.17 -1.11157 -6.22506
upperback -0.298106 -2.99561 -1.60288
thorax -9.20583 -1.26129 2.50938
lowerneck -19.0152 -2.96592 -4.59086
upperneck -4.38906 -4.22444 7.02057
head 2.16168 -2.28753 2.82304
rclavicle -5.26779e-015 -3.3694e-014
rhumerus -48.1993 3.05153 -91.4017
rradius 68.8742
rwrist -13.1564
rhand -29.7622 7.16491
rfingers 7.12502
rthumb -3.08777 -22.7925
lclavicle -5.26779e-015 -3.3694e-014
lhumerus -27.2613 -10.9938 92.756
lradius 95.3299
lwrist 11.4851
lhand -20.2758 -5.71782
lfingers 7.12502
lthumb 6.07353 24.1751
rfemur -42.4899 -11.1421 18.6357
rtibia 90.0714
rfoot -10.4773 -5.92022
rtoes 10.4695
lfemur -45.9014 -5.21478 -25.8631
ltibia 70.3555
lfoot -35.3988 -9.64067
ltoes -12.0074
343
root 1.45679 15.3331 8.24239 -148.405 -4.56086 172.264
lowerback 16.1946 -1.36651 -6.22282
upperback -0.334562 -3.32686 -1.53108
thorax -9.22713 -1.41501 2.663
lowerneck -19.2128 -2.95708 -4.60439
upperneck -4.45392 -4.23215 7.11641
head 2.1784 -2.29786 2.85704
rclavicle 1.56046e-014 3.38928e-014
rhumerus -49.9821 1.71135 -89.9087
rradius 65.8743
rwrist -13.3621
rhand -30.223 7.62933
rfingers 7.12502
rthumb -3.53277 -22.3211
lclavicle 1.56046e-014 3.38928e-014
lhumerus -24.2074 -10.8101 92.2997
lradius 98.0047
lwrist 11.6993
lhand -20.2571 -5.86359
lfingers 7.12502
lthumb 6.09156 24.0288
rfemur -46.4309 -11.7644 18.8779
rtibia 92.6352
rfoot -11.9508 -5.49455
rtoes 9.45206
lfemur -44.1422 -5.74689 -25.7979
ltibia 68.7961
lfoot -35.4982 -9.73449
ltoes -12.4334
344
root 1.45486 15.3494 7.88583 -148.057 -4.97049 172.039
lowerback 16.2044 -1.59462 -6.20519
upperback -0.371013 -3.61154 -1.41822
thorax -9.24091 -1.54516 2.84076
lowerneck -19.76 -2.96562 -4.52508
upperneck -4.06602 -4.269 7.28578
head 2.1106 -2.29973 2.6387
rclavicle 2.80286e-014 1.82882e-014
rhumerus -52.1352 0.548944 -88.2457
rradius 63.4863
rwrist -13.6299
rhand -30.6264 8.17629
rfingers 7.12502
rthumb -3.92238 -21.7673
lclavicle 2.80286e-014 1.82882e-014
lhumerus -20.9686 -10.533 91.802
lradius 100.863
lwrist 11.9295
lhand -20.2141 -5.94719
lfingers 7.12502
lthumb 6.1331 23.944
rfemur -50.3296 -12.2695 19.1651
rtibia 94.7817
rfoot -13.4367 -5.09769
rtoes 8.18235
lfemur -42.2247 -6.24103 -25.6857
ltibia 67.033
lfoot -35.4859 -9.9161
ltoes -12.7894
345
root 1.45471 15.3727 7.51649 -147.767 -5.38286 171.823
lowerback 16.2255 -1.7972 -6.1992
upperback -0.401829 -3.85984 -1.26706
thorax -9.2534 -1.65581 3.05839
lowerneck -20.0234 -2.99324 -4.56725
upperneck -4.03506 -4.30909 7.28961
head 2.16023 -2.32228 2.64022
rclavicle 1.74931e-014 2.5842e-014
rhumerus -54.6866 -0.335096 -86.4892
rradius 61.8624
rwrist -13.8894
rhand -30.9333 8.79273
rfingers 7.12502
rthumb -4.21873 -21.1452
lclavicle 1.74931e-014 2.5842e-014
lhumerus -17.5578 -10.1614 91.2412
lradius 103.876
lwrist 12.3182
lhand -20.2054 -5.92848
lfingers 7.12502
lthumb 6.14152 23.9625
rfemur -54.125 -12.6661 19.4501
rtibia 96.4923
rfoot -14.9168 -4.76839
rtoes 6.73438
lfemur -40.1111 -6.70108 -25.5534
ltibia 65.0361
lfoot -35.3254 -10.1988
ltoes -13.0816
